<?xml version="1.0" standalone="no"?><!DOCTYPE svg PUBLIC "-//W3C//DTD SVG 1.1//EN" "http://www.w3.org/Graphics/SVG/1.1/DTD/svg11.dtd"><svg t="1566567595685" class="icon" viewBox="0 0 1024 1024" version="1.1" xmlns="http://www.w3.org/2000/svg" p-id="723" width="128" height="128" xmlns:xlink="http://www.w3.org/1999/xlink"><defs><style type="text/css"></style></defs><path d="M329.9904 512.085333c32.682667 22.357333 70.912 43.093333 115.541333 61.568 76.16 31.658667 127.36 59.178667 153.642667 82.602667 26.24 23.338667 39.594667 53.248 39.594667 89.770667-0.213333 62.165333-43.648 93.397333-131.242667 93.397333-84.352 0-160-26.752-227.242667-80l-79.829333 178.602667c60.672 32.469333 110.08 53.632 148.266667 63.829333l6.016 1.408-76.714667 17.749333a100.906667 100.906667 0 0 1-120.832-75.562666L2.609067 277.333333a101.034667 101.034667 0 0 1 75.648-120.96l186.666666-43.050666a225.109333 225.109333 0 0 0-18.816 20.693333l-0.768 0.896c-32.128 40.490667-48.256 90.24-48.256 149.546667 0 89.642667 43.946667 165.12 131.370667 225.962666l1.962667 1.237334-0.426667 0.426666z m441.941333 3.072c-35.84-28.672-81.237333-54.101333-138.24-76.202666-84.48-33.450667-139.562667-60.16-165.162666-79.872-25.6-19.84-38.997333-41.856-38.997334-66.432 0-62.250667 38.997333-93.44 117.76-93.44 87.082667 0 155.562667 21.077333 204.202667 62.976l64.64-174.08A606.592 606.592 0 0 0 670.8544 36.224l-2.56-0.64c-10.922667-2.602667-22.4-5.12-34.602667-6.997333l112-25.685334a101.674667 101.674667 0 0 1 121.002667 75.562667l154.88 667.605333c12.117333 54.357333-21.76 108.842667-76.117333 120.96l-127.36 29.44c35.157333-44.842667 53.12-99.84 53.12-165.12 0-67.2-18.645333-124.202667-55.722667-171.562666a333.994667 333.994667 0 0 0-42.922667-42.922667l-1.877333-1.237333 1.237333-0.469334z" fill="#000000" p-id="724"></path></svg>