<svg class="icon" viewBox="0 0 1024 1024" xmlns="http://www.w3.org/2000/svg" width="128" height="128"><defs><style/></defs><path d="M329.99 512.085c32.683 22.358 70.912 43.094 115.542 61.568 76.16 31.659 127.36 59.179 153.642 82.603 26.24 23.339 39.595 53.248 39.595 89.77-.213 62.166-43.648 93.398-131.243 93.398-84.352 0-160-26.752-227.242-80l-79.83 178.603c60.672 32.469 110.08 53.632 148.267 63.829l6.016 1.408-76.715 17.75A100.907 100.907 0 01157.19 945.45L2.61 277.333a101.035 101.035 0 0175.647-120.96l186.667-43.05a225.11 225.11 0 00-18.816 20.693l-.768.896c-32.128 40.49-48.256 90.24-48.256 149.547 0 89.642 43.946 165.12 131.37 225.962l1.963 1.238-.427.426zm441.942 3.072c-35.84-28.672-81.238-54.101-138.24-76.202-84.48-33.451-139.563-60.16-165.163-79.872-25.6-19.84-38.997-41.856-38.997-66.432 0-62.251 38.997-93.44 117.76-93.44 87.082 0 155.562 21.077 204.202 62.976l64.64-174.08a606.592 606.592 0 00-145.28-51.883l-2.56-.64c-10.922-2.603-22.4-5.12-34.602-6.997l112-25.686a101.675 101.675 0 01121.002 75.563l154.88 667.605c12.118 54.358-21.76 108.843-76.117 120.96l-127.36 29.44c35.157-44.842 53.12-99.84 53.12-165.12 0-67.2-18.645-124.202-55.723-171.562a333.995 333.995 0 00-42.922-42.923l-1.878-1.237 1.238-.47z"/></svg>